<svg width="25" height="24" viewBox="0 0 25 24" fill="none" xmlns="http://www.w3.org/2000/svg">
<g clip-path="url(#clip0_11_7117)">
<path fill-rule="evenodd" clip-rule="evenodd" d="M12.5801 0C5.95266 0 0.580078 5.37258 0.580078 12C0.580078 18.6274 5.95266 24 12.5801 24C19.2075 24 24.5801 18.6274 24.5801 12C24.5801 5.37258 19.2075 0 12.5801 0ZM13.7348 11.9991V20H10.6308V11.9994H9.08008V9.24221H10.6308V7.58682C10.6308 5.33752 11.5065 4 13.9943 4H16.0654V6.75748H14.7708C13.8024 6.75748 13.7383 7.1428 13.7383 7.86191L13.7348 9.2419H16.0801L15.8057 11.9991H13.7348Z" fill="#BA8D5B"/>
</g>
<defs>
<clipPath id="clip0_11_7117">
<rect width="24" height="24" fill="white" transform="translate(0.580078)"/>
</clipPath>
</defs>
</svg>
