<svg width="25" height="24" viewBox="0 0 25 24" fill="none" xmlns="http://www.w3.org/2000/svg">
<g clip-path="url(#clip0_11_7124)">
<mask id="mask0_11_7124" style="mask-type:luminance" maskUnits="userSpaceOnUse" x="0" y="0" width="25" height="24">
<path d="M24.5801 0H0.580078V24H24.5801V0Z" fill="white"/>
</mask>
<g mask="url(#mask0_11_7124)">
<path d="M12.5801 24C19.2075 24 24.5801 18.6274 24.5801 12C24.5801 5.37258 19.2075 0 12.5801 0C5.95266 0 0.580078 5.37258 0.580078 12C0.580078 18.6274 5.95266 24 12.5801 24Z" fill="#BA8D5B"/>
<path d="M15.1296 5.33203H10.0363C7.76427 5.33203 5.91895 7.17736 5.91895 9.44936V14.5427C5.91895 16.8147 7.76427 18.66 10.0363 18.66H15.1296C17.4016 18.66 19.247 16.8147 19.247 14.5427V9.44936C19.247 7.17736 17.4016 5.33203 15.1296 5.33203ZM17.759 14.548C17.759 15.9987 16.5803 17.1827 15.1243 17.1827H10.0309C8.58027 17.1827 7.39628 16.004 7.39628 14.548V9.4547C7.39628 8.00403 8.57494 6.82003 10.0309 6.82003H15.1243C16.575 6.82003 17.759 7.9987 17.759 9.4547V14.548Z" fill="#021923"/>
<path d="M12.5799 8.58984C10.7026 8.58984 9.17188 10.1205 9.17188 11.9978C9.17188 13.8752 10.7026 15.4058 12.5799 15.4058C14.4572 15.4058 15.9879 13.8752 15.9879 11.9978C15.9879 10.1205 14.4572 8.58984 12.5799 8.58984ZM12.5799 14.0672C11.4386 14.0672 10.5105 13.1392 10.5105 11.9978C10.5105 10.8565 11.4386 9.92851 12.5799 9.92851C13.7212 9.92851 14.6492 10.8565 14.6492 11.9978C14.6492 13.1392 13.7212 14.0672 12.5799 14.0672Z" fill="#021923"/>
<path d="M16.2473 8.96283C16.5613 8.91193 16.7745 8.61614 16.7236 8.30216C16.6727 7.98818 16.3769 7.77491 16.063 7.82581C15.749 7.87671 15.5357 8.1725 15.5866 8.48648C15.6375 8.80046 15.9333 9.01373 16.2473 8.96283Z" fill="#021923"/>
</g>
</g>
<defs>
<clipPath id="clip0_11_7124">
<rect width="24" height="24" fill="white" transform="translate(0.580078)"/>
</clipPath>
</defs>
</svg>
