<svg width="25" height="24" viewBox="0 0 25 24" fill="none" xmlns="http://www.w3.org/2000/svg">
<g clip-path="url(#clip0_11_7134)">
<path d="M0.580078 12C0.580078 5.37258 5.95266 0 12.5801 0C19.2075 0 24.5801 5.37258 24.5801 12C24.5801 18.6274 19.2075 24 12.5801 24C5.95266 24 0.580078 18.6274 0.580078 12Z" fill="#BA8D5B"/>
<path fill-rule="evenodd" clip-rule="evenodd" d="M9.24004 7.41135C9.24004 8.1959 8.64948 8.82367 7.70125 8.82367H7.68387C6.77089 8.82367 6.18066 8.1959 6.18066 7.41135C6.18066 6.6102 6.78886 6 7.71917 6C8.64948 6 9.22239 6.6102 9.24004 7.41135ZM9.06095 9.93886V18.1097H6.34149V9.93886H9.06095ZM18.8686 18.1098L18.8687 13.4249C18.8687 10.9152 17.5271 9.74713 15.7376 9.74713C14.2937 9.74713 13.6473 10.5402 13.2863 11.0965V9.93921H10.5665C10.6024 10.7059 10.5665 18.1101 10.5665 18.1101H13.2863V13.5468C13.2863 13.3026 13.304 13.059 13.3759 12.8841C13.5724 12.3963 14.02 11.8912 14.7713 11.8912C15.7557 11.8912 16.1492 12.6404 16.1492 13.7384V18.1098H18.8686Z" fill="#021923"/>
</g>
<defs>
<clipPath id="clip0_11_7134">
<rect width="24" height="24" fill="white" transform="translate(0.580078)"/>
</clipPath>
</defs>
</svg>
