<svg width="25" height="24" viewBox="0 0 25 24" fill="none" xmlns="http://www.w3.org/2000/svg">
<g clip-path="url(#clip0_11_7120)">
<path fill-rule="evenodd" clip-rule="evenodd" d="M12.5801 0C5.95266 0 0.580078 5.37258 0.580078 12C0.580078 18.6274 5.95266 24 12.5801 24C19.2075 24 24.5801 18.6274 24.5801 12C24.5801 5.37258 19.2075 0 12.5801 0ZM17.5809 7.87466C18.1317 8.0258 18.5654 8.47111 18.7126 9.03661C18.9801 10.0615 18.9801 12.2 18.9801 12.2C18.9801 12.2 18.9801 14.3384 18.7126 15.3634C18.5654 15.9289 18.1317 16.3742 17.5809 16.5254C16.5828 16.8 12.5801 16.8 12.5801 16.8C12.5801 16.8 8.57739 16.8 7.57921 16.5254C7.02844 16.3742 6.5947 15.9289 6.4475 15.3634C6.18008 14.3384 6.18008 12.2 6.18008 12.2C6.18008 12.2 6.18008 10.0615 6.4475 9.03661C6.5947 8.47111 7.02844 8.0258 7.57921 7.87466C8.57739 7.6 12.5801 7.6 12.5801 7.6C12.5801 7.6 16.5828 7.6 17.5809 7.87466Z" fill="#BA8D5B"/>
<path d="M11.3799 14.4004V10.4004L14.5799 12.4005L11.3799 14.4004Z" fill="#BA8D5B"/>
</g>
<defs>
<clipPath id="clip0_11_7120">
<rect width="24" height="24" fill="white" transform="translate(0.580078)"/>
</clipPath>
</defs>
</svg>
