<svg width="25" height="26" viewBox="0 0 25 26" fill="none" xmlns="http://www.w3.org/2000/svg">
<g clip-path="url(#clip0_11_7114)">
<path fill-rule="evenodd" clip-rule="evenodd" d="M24.5801 13.2C24.5801 20.0759 19.2075 25.65 12.5801 25.65C5.95266 25.65 0.580078 20.0759 0.580078 13.2C0.580078 6.32405 5.95266 0.75 12.5801 0.75C19.2075 0.75 24.5801 6.32405 24.5801 13.2ZM12.9547 9.74022C11.7904 10.2532 9.46342 11.315 5.97376 12.9256C5.4071 13.1643 5.11025 13.3978 5.08323 13.6261C5.03756 14.012 5.49377 14.164 6.115 14.3709C6.1995 14.3991 6.28705 14.4282 6.37681 14.4591C6.98801 14.6696 7.81017 14.9158 8.23758 14.9256C8.62529 14.9345 9.058 14.7651 9.53574 14.4176C12.7963 12.0862 14.4793 10.9078 14.585 10.8824C14.6595 10.8644 14.7629 10.8419 14.8328 10.9078C14.9028 10.9737 14.896 11.0985 14.8885 11.132C14.8434 11.3361 13.0526 13.0997 12.1259 14.0123C11.837 14.2968 11.632 14.4987 11.5901 14.5448C11.4963 14.648 11.4007 14.7457 11.3087 14.8395C10.7409 15.4194 10.3151 15.8542 11.3323 16.5643C11.8211 16.9055 12.2123 17.1877 12.6025 17.4692C13.0287 17.7766 13.4538 18.0833 14.0037 18.4652C14.1439 18.5625 14.2777 18.6635 14.408 18.762C14.904 19.1365 15.3496 19.473 15.9 19.4193C16.2199 19.3882 16.5503 19.0695 16.7181 18.1193C17.1147 15.8736 17.8942 11.0078 18.0743 9.00269C18.0901 8.82702 18.0702 8.60219 18.0543 8.5035C18.0384 8.40481 18.005 8.26419 17.8839 8.1601C17.7405 8.03682 17.5191 8.01082 17.4201 8.01258C16.9698 8.02107 16.2791 8.27551 12.9547 9.74022Z" fill="#BA8D5B"/>
</g>
<defs>
<clipPath id="clip0_11_7114">
<rect width="24" height="26" fill="white" transform="translate(0.580078)"/>
</clipPath>
</defs>
</svg>
